<?xml version="1.0" encoding="UTF-8" standalone="no"?>
<!-- Generated by IcoMoon.io -->

<svg
   xmlns:dc="http://purl.org/dc/elements/1.1/"
   xmlns:cc="http://creativecommons.org/ns#"
   xmlns:rdf="http://www.w3.org/1999/02/22-rdf-syntax-ns#"
   xmlns:svg="http://www.w3.org/2000/svg"
   xmlns="http://www.w3.org/2000/svg"
   xmlns:sodipodi="http://sodipodi.sourceforge.net/DTD/sodipodi-0.dtd"
   xmlns:inkscape="http://www.inkscape.org/namespaces/inkscape"
   version="1.1"
   width="64"
   height="64"
   viewBox="0 0 64 64"
   id="svg3336"
   inkscape:version="0.91 r13725"
   sodipodi:docname="behance.svg">
  <metadata
     id="metadata3348">
    <rdf:RDF>
      <cc:Work
         rdf:about="">
        <dc:format>image/svg+xml</dc:format>
        <dc:type
           rdf:resource="http://purl.org/dc/dcmitype/StillImage" />
      </cc:Work>
    </rdf:RDF>
  </metadata>
  <defs
     id="defs3346" />
  <sodipodi:namedview
     pagecolor="#ffffff"
     bordercolor="#666666"
     borderopacity="1"
     objecttolerance="10"
     gridtolerance="10"
     guidetolerance="10"
     inkscape:pageopacity="0"
     inkscape:pageshadow="2"
     inkscape:window-width="1920"
     inkscape:window-height="1017"
     id="namedview3344"
     showgrid="false"
     inkscape:zoom="8"
     inkscape:cx="19.189679"
     inkscape:cy="24.025641"
     inkscape:window-x="-8"
     inkscape:window-y="-8"
     inkscape:window-maximized="1"
     inkscape:current-layer="svg3336" />
  <path
     d="M18.563 12.825c1.887 0 3.587 0.162 5.137 0.5 1.55 0.325 2.863 0.875 3.975 1.625 1.1 0.75 1.95 1.75 2.575 3 0.6 1.238 0.9 2.788 0.9 4.625 0 1.988-0.45 3.637-1.35 4.963-0.913 1.325-2.238 2.4-4.012 3.25 2.425 0.7 4.213 1.925 5.412 3.663 1.2 1.75 1.775 3.85 1.775 6.325 0 2-0.388 3.712-1.15 5.163-0.775 1.462-1.825 2.65-3.113 3.563-1.3 0.925-2.8 1.6-4.475 2.038-1.663 0.438-3.375 0.663-5.15 0.663h-19.087v-39.375h18.563zM17.438 28.725c1.538 0 2.813-0.363 3.813-1.1 1-0.725 1.475-1.925 1.475-3.575 0-0.913-0.163-1.675-0.488-2.262-0.337-0.587-0.775-1.050-1.337-1.375-0.55-0.337-1.175-0.563-1.913-0.688-0.712-0.137-1.462-0.2-2.225-0.2h-8.1v9.2h8.775zM17.913 45.487c0.85 0 1.663-0.075 2.425-0.25 0.775-0.175 1.462-0.438 2.038-0.837 0.575-0.388 1.063-0.9 1.413-1.575 0.35-0.663 0.512-1.513 0.512-2.55 0-2.025-0.575-3.475-1.712-4.35-1.137-0.862-2.65-1.288-4.525-1.288h-9.4v10.837h9.25z"
     id="path3338"
     style="opacity:1;fill:#ffffff;fill-opacity:1" />
  <path
     d="M45.325 45.35c1.175 1.15 2.862 1.725 5.063 1.725 1.575 0 2.95-0.4 4.087-1.2s1.825-1.65 2.087-2.525h6.9c-1.112 3.438-2.788 5.875-5.087 7.35-2.263 1.475-5.038 2.225-8.25 2.225-2.25 0-4.263-0.362-6.075-1.075-1.813-0.725-3.325-1.737-4.6-3.063-1.237-1.325-2.212-2.9-2.9-4.75-0.675-1.837-1.025-3.875-1.025-6.075 0-2.138 0.35-4.125 1.050-5.962 0.712-1.85 1.688-3.438 2.987-4.775s2.825-2.4 4.625-3.175c1.788-0.775 3.763-1.163 5.95-1.163 2.413 0 4.525 0.462 6.337 1.413 1.8 0.938 3.288 2.2 4.45 3.775s1.987 3.387 2.5 5.412c0.513 2.025 0.688 4.138 0.55 6.35h-20.587c0 2.237 0.75 4.375 1.938 5.513zM54.313 30.375c-0.925-1.025-2.513-1.587-4.425-1.587-1.25 0-2.288 0.212-3.112 0.637-0.813 0.425-1.475 0.95-1.987 1.575-0.5 0.625-0.85 1.3-1.050 2.013-0.2 0.688-0.325 1.325-0.362 1.875h12.75c-0.188-2-0.875-3.475-1.813-4.512z"
     id="path3340"
     style="fill:#ffffff;fill-opacity:1" />
  <path
     d="M41.775 16h15.962v3.887h-15.962v-3.887z"
     id="path3342"
     style="fill:#ffffff;fill-opacity:1" />
</svg>
