<?xml version="1.0" encoding="UTF-8" standalone="no"?>
<!-- Generated by IcoMoon.io -->

<svg
   xmlns:dc="http://purl.org/dc/elements/1.1/"
   xmlns:cc="http://creativecommons.org/ns#"
   xmlns:rdf="http://www.w3.org/1999/02/22-rdf-syntax-ns#"
   xmlns:svg="http://www.w3.org/2000/svg"
   xmlns="http://www.w3.org/2000/svg"
   xmlns:sodipodi="http://sodipodi.sourceforge.net/DTD/sodipodi-0.dtd"
   xmlns:inkscape="http://www.inkscape.org/namespaces/inkscape"
   version="1.1"
   width="64"
   height="64"
   viewBox="0 0 64 64"
   id="svg2"
   inkscape:version="0.91 r13725"
   sodipodi:docname="codepen.svg">
  <metadata
     id="metadata10">
    <rdf:RDF>
      <cc:Work
         rdf:about="">
        <dc:format>image/svg+xml</dc:format>
        <dc:type
           rdf:resource="http://purl.org/dc/dcmitype/StillImage" />
      </cc:Work>
    </rdf:RDF>
  </metadata>
  <defs
     id="defs8" />
  <sodipodi:namedview
     pagecolor="#ffffff"
     bordercolor="#666666"
     borderopacity="1"
     objecttolerance="10"
     gridtolerance="10"
     guidetolerance="10"
     inkscape:pageopacity="0"
     inkscape:pageshadow="2"
     inkscape:window-width="1920"
     inkscape:window-height="1017"
     id="namedview6"
     showgrid="false"
     inkscape:zoom="5.2149125"
     inkscape:cx="39.153283"
     inkscape:cy="1.9966456"
     inkscape:window-x="-8"
     inkscape:window-y="-8"
     inkscape:window-maximized="1"
     inkscape:current-layer="svg2" />
  <path
     d="m 61.334656,20.697915 -28,-18.6669997 c -0.672,-0.448 -1.547,-0.448 -2.219,0 L 3.1156561,20.697915 c -0.556,0.371 -0.891,0.995 -0.891,1.664 l 0,18.667 c 0,0.669 0.334,1.293 0.891,1.664 l 27.9999999,18.667 c 0.336,0.224 0.723,0.336 1.109,0.336 0.386,0 0.773,-0.112 1.109,-0.336 l 28,-18.667 c 0.556,-0.371 0.891,-0.995 0.891,-1.664 l 0,-18.667 c 0,-0.669 -0.334,-1.293 -0.891,-1.664 z m -29.109,17.927 -10.395,-6.93 10.395,-6.93 10.395,6.93 -10.395,6.93 z m 2,-17.334 0,-13.8589997 22.394,14.9299997 -10.394,6.93 -12,-8 z m -4,0 -12,8 -10.3949999,-6.93 22.3949999,-14.9299997 0,13.8589997 z m -15.605,10.404 -8.3949999,5.596 0,-11.193 8.3949999,5.596 z m 3.605,2.404 12,8 0,13.859 -22.3949999,-14.93 10.3949999,-6.93 z m 16,8 12,-8 10.395,6.93 -22.395,14.93 0,-13.859 z m 15.605,-10.404 8.395,-5.596 0,11.193 -8.395,-5.596 z"
     id="path4"
     style="fill:#ffffff;fill-opacity:1"
     inkscape:connector-curvature="0" />
</svg>
