<?xml version="1.0" encoding="UTF-8" standalone="no"?>
<!-- Generated by IcoMoon.io -->

<svg
   xmlns:dc="http://purl.org/dc/elements/1.1/"
   xmlns:cc="http://creativecommons.org/ns#"
   xmlns:rdf="http://www.w3.org/1999/02/22-rdf-syntax-ns#"
   xmlns:svg="http://www.w3.org/2000/svg"
   xmlns="http://www.w3.org/2000/svg"
   xmlns:sodipodi="http://sodipodi.sourceforge.net/DTD/sodipodi-0.dtd"
   xmlns:inkscape="http://www.inkscape.org/namespaces/inkscape"
   version="1.1"
   width="64"
   height="64"
   viewBox="0 0 64 64"
   id="svg2"
   inkscape:version="0.91 r13725"
   sodipodi:docname="codepen.svg">
  <metadata
     id="metadata10">
    <rdf:RDF>
      <cc:Work
         rdf:about="">
        <dc:format>image/svg+xml</dc:format>
        <dc:type
           rdf:resource="http://purl.org/dc/dcmitype/StillImage" />
      </cc:Work>
    </rdf:RDF>
  </metadata>
  <defs
     id="defs8" />
  <sodipodi:namedview
     pagecolor="#ffffff"
     bordercolor="#666666"
     borderopacity="1"
     objecttolerance="10"
     gridtolerance="10"
     guidetolerance="10"
     inkscape:pageopacity="0"
     inkscape:pageshadow="2"
     inkscape:window-width="1920"
     inkscape:window-height="1017"
     id="namedview6"
     showgrid="false"
     inkscape:zoom="3.6875"
     inkscape:cx="72"
     inkscape:cy="32"
     inkscape:window-x="-8"
     inkscape:window-y="-8"
     inkscape:window-maximized="1"
     inkscape:current-layer="svg2" />
  <path
     d="M59.109 23.003l-28-18.667c-0.672-0.448-1.547-0.448-2.219 0l-28 18.667c-0.556 0.371-0.891 0.995-0.891 1.664v18.667c0 0.669 0.334 1.293 0.891 1.664l28 18.667c0.336 0.224 0.723 0.336 1.109 0.336s0.773-0.112 1.109-0.336l28-18.667c0.556-0.371 0.891-0.995 0.891-1.664v-18.667c0-0.669-0.334-1.293-0.891-1.664zM30 40.93l-10.395-6.93 10.395-6.93 10.395 6.93-10.395 6.93zM32 23.596v-13.859l22.394 14.93-10.394 6.93-12-8zM28 23.596l-12 8-10.395-6.93 22.395-14.93v13.859zM12.395 34l-8.395 5.596v-11.193l8.395 5.596zM16 36.404l12 8v13.859l-22.395-14.93 10.395-6.93zM32 44.404l12-8 10.395 6.93-22.395 14.93v-13.859zM47.605 34l8.395-5.596v11.193l-8.395-5.596z"
     id="path4"
     style="fill:#ffffff;fill-opacity:1" />
</svg>
