<?xml version="1.0" encoding="UTF-8" standalone="no"?>
<!-- Generator: Adobe Illustrator 16.0.0, SVG Export Plug-In . SVG Version: 6.00 Build 0)  -->

<svg
   xmlns:dc="http://purl.org/dc/elements/1.1/"
   xmlns:cc="http://creativecommons.org/ns#"
   xmlns:rdf="http://www.w3.org/1999/02/22-rdf-syntax-ns#"
   xmlns:svg="http://www.w3.org/2000/svg"
   xmlns="http://www.w3.org/2000/svg"
   xmlns:sodipodi="http://sodipodi.sourceforge.net/DTD/sodipodi-0.dtd"
   xmlns:inkscape="http://www.inkscape.org/namespaces/inkscape"
   version="1.1"
   id="Capa_1"
   x="0px"
   y="0px"
   width="64"
   height="64"
   viewBox="0 0 54.818625 54.818625"
   xml:space="preserve"
   inkscape:version="0.91 r13725"
   sodipodi:docname="github.svg"><metadata
     id="metadata41"><rdf:RDF><cc:Work
         rdf:about=""><dc:format>image/svg+xml</dc:format><dc:type
           rdf:resource="http://purl.org/dc/dcmitype/StillImage" /><dc:title /></cc:Work></rdf:RDF></metadata><defs
     id="defs39" /><sodipodi:namedview
     pagecolor="#ffffff"
     bordercolor="#666666"
     borderopacity="1"
     objecttolerance="10"
     gridtolerance="10"
     guidetolerance="10"
     inkscape:pageopacity="0"
     inkscape:pageshadow="2"
     inkscape:window-width="1920"
     inkscape:window-height="1017"
     id="namedview37"
     showgrid="false"
     inkscape:zoom="10.429825"
     inkscape:cx="7.9104563"
     inkscape:cy="29.001879"
     inkscape:window-x="-8"
     inkscape:window-y="-8"
     inkscape:window-maximized="1"
     inkscape:current-layer="Capa_1" /><g
     id="g3"
     style="fill:#000000;fill-opacity:1"
     transform="translate(0,-383.73037)" /><g
     id="g7"
     transform="translate(0,-383.73037)" /><g
     id="g9"
     transform="translate(0,-383.73037)" /><g
     id="g11"
     transform="translate(0,-383.73037)" /><g
     id="g13"
     transform="translate(0,-383.73037)" /><g
     id="g15"
     transform="translate(0,-383.73037)" /><g
     id="g17"
     transform="translate(0,-383.73037)" /><g
     id="g19"
     transform="translate(0,-383.73037)" /><g
     id="g21"
     transform="translate(0,-383.73037)" /><g
     id="g23"
     transform="translate(0,-383.73037)" /><g
     id="g25"
     transform="translate(0,-383.73037)" /><g
     id="g27"
     transform="translate(0,-383.73037)" /><g
     id="g29"
     transform="translate(0,-383.73037)" /><g
     id="g31"
     transform="translate(0,-383.73037)" /><g
     id="g33"
     transform="translate(0,-383.73037)" /><g
     id="g35"
     transform="translate(0,-383.73037)" /><g
     id="g4178"
     transform="matrix(0.10507252,0,0,0.10507252,0.57487264,0.85725048)"
     style="fill:#ffffff;fill-opacity:1"><path
       id="path4180"
       d="m 296.133,354.174 c 49.885,-5.891 102.942,-24.029 102.942,-110.192 0,-24.49 -8.624,-44.448 -22.67,-59.869 2.266,-5.89 9.515,-28.114 -2.734,-58.947 0,0 -18.139,-5.898 -60.759,22.669 -18.139,-4.983 -38.09,-8.163 -56.682,-8.163 -19.053,0 -39.011,3.18 -56.697,8.163 -43.082,-28.567 -61.22,-22.669 -61.22,-22.669 -12.241,30.833 -4.983,53.057 -2.718,58.947 -14.061,15.42 -22.677,35.379 -22.677,59.869 0,86.163 53.057,104.301 102.942,110.192 -6.344,5.452 -12.241,15.873 -14.507,30.387 -12.702,5.438 -45.808,15.873 -65.758,-18.592 0,0 -11.795,-21.31 -34.012,-22.669 0,0 -22.224,-0.453 -1.813,13.592 0,0 14.96,6.812 24.943,32.653 0,0 13.6,43.089 76.179,29.48 l 0,38.543 c 0,5.906 -4.53,12.702 -15.865,10.89 C 96.139,438.977 32.2,354.626 32.2,255.77 32.2,131.963 132.416,31.748 256.23,31.748 c 123.347,0 224.023,100.216 223.57,224.022 0,98.856 -63.946,182.754 -152.828,212.688 -11.342,2.266 -15.873,-4.53 -15.873,-10.89 l 0,-62.118 c 0.001,-20.873 -6.811,-34.465 -14.966,-41.276 l 0,0 z M 512,256.23 C 512,114.73 397.263,0 256.23,0 114.73,0 0,114.73 0,256.23 0,397.263 114.73,512 256.23,512 397.263,512 512,397.263 512,256.23 l 0,0 z"
       inkscape:connector-curvature="0"
       style="clip-rule:evenodd;fill:#ffffff;fill-opacity:1;fill-rule:evenodd" /></g></svg>