<svg version="1" xmlns="http://www.w3.org/2000/svg" width="1365.333" height="1365.333" viewBox="0 0 1024.000000 1024.000000"><path d="M327.2 249.6l-11.4 11.5.1 260.7c0 143.4 0 261.5.1 262.5 0 1.8 3.4 1.8 89.8 1.4 49.3-.3 91.7-.7 94.2-1 2.5-.3 7-.9 10-1.3 3-.3 7.3-.8 9.5-1 3.5-.4 10.3-1.5 17-2.8 1.1-.2 4.9-.9 8.5-1.6 13.6-2.6 40-10.5 54.5-16.5 5.3-2.1 25.9-11.9 26.5-12.5.3-.3 2.5-1.6 5-2.9 10.7-5.7 30.3-19.5 41.2-28.8 4.3-3.8 42.3-41.7 47.4-47.3 15.3-17 30.9-42.2 40.8-65.7 4.8-11.6 11.7-34.1 13.2-43.3.3-1.9.8-3.8 1-4.1.2-.4.6-2.4.9-4.5.3-2.2.8-5 1-6.4.4-2.4 1.3-8.6 2-14 1-7.6 1.8-24.4 1.8-38 0-15-1-39.7-1.7-40.9-.2-.3-.7-4-1.1-8.1-.4-4.1-.9-7.7-1-8-.2-.3-.6-2.6-1-5-.6-3.8-1.3-7.6-4-20-2.6-12-10-33.2-16.4-46.4-22.8-47.6-58.8-80.7-110.7-102-25.3-10.3-60.5-18.9-90.9-22.1-2.7-.3-7-.8-9.5-1-2.5-.3-7.4-.8-11-1.2-3.6-.3-48.8-.8-100.5-.9l-94-.4-11.3 11.6zM509 336.4c11.4 1.5 19.8 2.7 21.6 3 26.1 5.4 37.2 9.1 55.9 18.6 36.3 18.6 60.7 50.2 72.6 94.3.6 2.3 1.3 5.3 1.6 6.7.2 1.4.8 4.4 1.3 6.7.5 2.2 1.3 6.5 1.6 9.5.3 2.9.8 5.6 1 5.9.8 1.4 1.8 22.1 1.8 37.9.1 26.1-.8 34.1-6.9 64.2-.2.9-2.2 7.1-4.4 13.7-6.9 20.6-20 44.1-29.5 52.9-16.6 15.3-53.4 31.7-80.1 35.6-2.2.4-4.7.8-5.5 1.1-.8.2-3.7.7-6.5 1-2.7.4-6.6.9-8.5 1.2-1.9.2-25.2.7-51.7 1l-48.3.5V334.8l39.8.5c21.8.3 41.7.8 44.2 1.1z"/></svg>