<svg version="1" xmlns="http://www.w3.org/2000/svg" width="3149.333" height="3149.333" viewBox="0 0 2362.000000 2362.000000"><path d="M705.3 297.8c-2.2.3-2.3.7-2.4 12.5 0 10.6 0 218.2.1 226.2v3l105.3.1c93.2.1 131.5.6 139.7 1.9 1.4.2 5.7.7 9.5 1 20.7 1.5 58.8 6.6 74.5 10 1.4.3 5 .9 8 1.5s6.7 1.2 8.2 1.5c1.5.3 7.6 1.7 13.5 3.1 6 1.4 11.7 2.7 12.8 3 3.2.6 28.8 7.5 31.5 8.4 1.4.5 5.9 1.9 10 3.1 7.6 2.2 39.3 13.1 48.5 16.7 10.8 4.2 25.5 10.3 35.5 14.7 11.3 5 46.6 22.6 54 26.9 2.5 1.4 5.2 2.9 6 3.3 28.2 14.4 91.7 58.9 116.1 81.5 2.1 1.9 6.3 5.6 9.5 8.3 6.3 5.3 40.9 39.6 48.5 48 5.8 6.5 21.6 25 25.4 30 1.7 2.1 4.8 6.1 7 8.9 6.3 8 14.6 19.2 21.7 29.6 6.5 9.4 22.8 34.7 22.8 35.4 0 .2 2.3 4.3 5.1 9.2 7.1 12.2 20.8 38.3 21 39.9 0 .2 1.8 4.1 4 8.5 2.1 4.4 3.9 8.3 3.9 8.5 0 .3 1 2.7 2.1 5.3 1.2 2.6 2.7 6.1 3.5 7.8 6 13.7 20.1 54.9 24 70.4.8 3 1.6 6.2 1.8 7 3.3 12.2 8.1 34.5 10.1 46.5 2 11.8 3.5 21.9 4 26 .3 2.7.8 7.2 1.2 10 .7 5.8.8 6.8 1.7 19.5.4 5.2.9 11.5 1.2 13.9.7 5.6.7 54.4 0 63.6-.3 3.8-.8 10.8-1.2 15.4-.3 4.7-.7 9.2-.9 10-.1.9-.6 5.2-.9 9.6-.4 4.4-.9 8.7-1.1 9.5-.2.8-.6 3.7-1 6.5-1.1 8.7-1.6 11.6-5.1 30-2 9.9-5.1 24.3-7.1 32-1.9 7.7-3.6 14.4-3.8 15-.1.5-.5 1.7-.8 2.5-.3.8-2.4 7.3-4.6 14.5-4.5 14.5-10.2 30.9-11.8 34-.6 1.1-1.2 2.3-1.2 2.7-.6 3.1-17.2 42.1-20.3 47.3-.6 1.1-3 5.8-5.4 10.5-5.4 10.9-22.2 40.4-27.4 48-2.2 3.2-4 6.2-4 6.5 0 .3-.5 1.1-1 1.8-.6.7-5 7-9.9 14.2-4.9 7.1-9.3 13.4-9.8 14-.5.5-4.6 5.9-9.2 12-36.5 47.7-82.8 93-133.1 130.2-19.9 14.7-52.9 36.4-66 43.4-2.5 1.3-4.7 2.6-5 2.9-.5.5-1.1.9-14 7.9-10.9 5.9-44.9 22.6-48 23.6-.3.1-3 1.3-6 2.7-16.3 7.6-51.1 20.6-77.4 28.9-14.6 4.6-48.3 13.6-59.6 16-7.7 1.6-9.2 1.9-19 3.9-5.2 1-11.1 2.1-13 2.4-1.9.3-4.6.8-6 1.1-4.6.9-15 2.5-19.8 3.1-2.6.2-7.2.9-10.2 1.4-3 .5-8.6 1.2-12.5 1.5-3.8.4-7.8.9-8.8 1.1-1 .1-5.9.6-11 1-5.1.3-10.8.7-12.7.9-19.3 1.5-44.2 1.8-135.5 2-58.3.2-106.3.3-106.7.4-.5 0-.8 54.3-.8 120.6s.3 120.5.8 120.6c.4 0 46.8.1 103.2.1 88.2.1 124.3-.4 147.5-1.7 8.3-.5 22.7-1.5 27-2 2.2-.2 7.2-.7 11-1 3.9-.3 8.6-.8 10.5-1 1.9-.2 6-.7 9-1 3-.4 6.6-.8 8-1 1.4-.2 4.9-.7 7.9-1 3-.4 6.3-.9 7.5-1.1 1.2-.2 4.4-.6 7.1-.9 4.7-.6 6.3-.8 13.5-2 1.7-.3 4.5-.7 6.3-1 1.7-.3 4.3-.7 5.7-1 1.4-.3 4.1-.7 6-1 26.5-4.2 77.2-15.8 107-24.5 5.8-1.7 12.8-3.7 15.5-4.5 2.8-.8 8.4-2.6 12.5-4s8.4-2.8 9.5-3c2.1-.5 27.6-9.4 41-14.3 14.9-5.5 39.5-15.5 52-21.2 2.2-1 7.8-3.5 12.5-5.5 12.1-5.4 57.4-28.1 67.8-34 .9-.6 5.3-3 9.7-5.4 4.4-2.5 11.5-6.6 15.8-9.3 4.3-2.6 8.1-4.8 8.3-4.8.2 0 3-1.7 6.2-3.7 3.1-2 7.3-4.6 9.2-5.9 21.5-13.5 58.6-39 62.8-43.1.7-.7 1.7-1.3 2-1.3.4 0 1.8-1 3.2-2.3 1.4-1.2 5.2-4.2 8.5-6.7 3.3-2.4 7.4-5.6 9.1-7 1.7-1.4 4.8-3.9 6.9-5.5 17.2-13.3 44.8-37.9 68.4-60.9 55.5-54.5 107.3-120.2 143.7-182.6 2.7-4.6 5.4-9.4 6.1-10.5.7-1.1 1.5-2.6 1.9-3.4.4-.7 3.6-6.6 7.1-13 7-12.6 22.8-44.5 28.8-58.1 2.1-4.7 4.6-10.3 5.5-12.5 1.5-3.4 4-9.3 7.5-18 .5-1.1.9-2.2.9-2.5.3-1 7.8-20.5 8.7-22.5 3.4-7.4 21.6-66.8 24.4-79.5.2-.8 1.1-4.7 2-8.5.9-3.9 1.9-8.1 2.1-9.5.3-1.4 1.1-5.2 1.9-8.5 2-8.1 5.7-27.2 7-36 .2-1.1 1.2-7.9 2.3-15 1.1-7.2 2.3-15.5 2.6-18.5 1.3-12.2 1.6-14.6 2-16.5.2-1.1.7-6.3 1.1-11.5.4-5.2.9-10.9 1.1-12.5 2.4-20 2.4-111.3 0-124.2-.2-1-.7-6.1-1.1-11.3-.4-5.2-.9-10.4-1.1-11.5-.2-1.1-.7-4.9-1-8.3-.3-3.5-.7-7.3-.9-8.4-.3-1.1-.7-4.6-1.1-7.7-.3-3.1-.8-6.5-1-7.6-.6-2.8-2.2-13.2-2.9-18.5-.3-2.5-.8-5.2-1-6-.2-.8-.7-3.1-1-5-3-18.1-10.8-51.3-18.2-77-6.3-22-20.1-62.9-25.2-74.5-.5-1.1-2.4-5.6-4.1-10-1.8-4.4-4.8-11.6-6.7-16-2-4.4-4.2-9.6-5.1-11.5-6.1-14-26.2-53.4-34.8-68.3-1.9-3.2-3.4-6-3.4-6.2 0-.2-3.4-5.8-7.5-12.5s-7.5-12.4-7.5-12.6c0-.7-6.5-9.9-7.2-10.2-.5-.2-.8-.8-.8-1.4 0-1.2-18.3-28.2-29.4-43.3-18.5-25.2-42.3-54.1-62.1-75.5-4.8-5.2-21.5-22.7-23.1-24.4-24.8-24.5-42.7-40.9-64.8-59.4-6.1-5.1-11.8-9.8-12.6-10.5-2.5-2.1-12.6-10.1-16-12.7-3.1-2.3-9.2-6.9-11.5-8.7-20-15.4-53.1-37.7-81.8-55.1-6.4-4-12-7.2-12.4-7.2-.3 0-1.4-.6-2.2-1.4-.9-.7-4.3-2.8-7.6-4.6-3.3-1.8-10.5-5.7-16-8.7-22.8-12.6-50.2-25.9-79-38.5-8.8-3.8-16.9-7.3-18-7.8-5.4-2.5-48.3-18.8-51.5-19.6-.8-.2-5.5-1.8-10.5-3.5-14.7-5.1-49.8-15.9-60.4-18.5-.9-.2-11.3-2.8-23.1-5.8s-22.8-5.7-24.5-5.9c-1.6-.3-10.6-2.2-20-4.1-9.3-1.9-18.6-3.7-20.5-4-1.9-.3-4.6-.8-6-1-6.1-1.2-9.1-1.7-18.5-3.2-5.5-.8-11.6-1.7-13.5-1.9-1.9-.3-5.3-.7-7.5-1-8.7-1.4-16.7-2.4-23.7-3-2.9-.3-6.2-.7-7.3-.9-1.1-.2-6.3-.7-11.5-1.1-5.2-.4-10.3-.9-11.4-1.1-1-.2-6.9-.6-13-.9-6.1-.4-12.7-.8-14.6-1-11.7-1.2-56.6-1.8-145-1.9-55.3 0-101.5 0-102.7.2z"/><path d="M701.2 1167l.1 484 67.6-.4c37.2-.3 69.9-.7 72.6-1 2.8-.3 8.4-.8 12.5-1.1 10.9-.8 34.5-3.6 42.5-5.1 1-.2 3.7-.6 6-1 2.2-.3 5.8-.9 8-1.4 2.2-.5 5.6-1.2 7.5-1.5 1.9-.3 5.3-1 7.5-1.5s5.4-1.1 7-1.4c1.7-.3 9.8-2.4 18-4.6 8.3-2.3 15.7-4.2 16.5-4.4.8-.2 8-2.5 16-5.1 48.8-15.9 96.2-39 138-67.3 10.5-7.1 31.3-22.3 33-24.2.3-.3 4.3-3.7 9-7.5s10.8-9 13.5-11.5c8.6-7.7 35.8-35.2 41.5-41.9 3-3.5 6.2-7.1 7-8 2.5-2.5 9-10.7 17.6-22.1 28.6-37.7 51.9-81 67.8-126.3 4.2-12 9.2-28.2 10.1-32.7.2-1.2 1.1-4.6 1.9-7.4.8-2.8 1.7-6.2 2-7.6.2-1.4.9-4.5 1.4-7 .6-2.5 1.3-6.1 1.6-8 .3-1.9.8-4.6 1.1-6 .2-1.3.7-4.2 1-6.5.3-2.2.8-4.7 1-5.5.2-.8.7-4 1-7 .3-3 .8-6.6 1-8 .4-2.8 1.6-16.4 2.1-25 .5-7.1.5-48.3 0-53.5-.2-2.2-.7-8.3-1.1-13.5-.4-5.2-.9-10.4-1.1-11.4-.2-1.1-.8-5.6-1.5-10-.9-7.2-4.1-25.6-5.3-31.1-3.7-16.9-12.1-46.2-13.8-48.3-.6-.6-.8-1.2-.4-1.2.3 0-.1-1.9-1-4.3-.9-2.3-2.5-6.7-3.6-9.7-1.1-3-2.6-6.9-3.3-8.5-.7-1.7-2.8-6.6-4.6-11-4.7-11.5-20.4-42.2-27.9-54.5-22.2-36.6-43.6-63.8-73.9-94-19.1-19-26.3-25.6-41.1-37.4-14.2-11.4-21-16.4-31-23.1-4.1-2.8-7.7-5.2-8-5.6-.3-.3-5.2-3.4-11-7-37.4-23.3-79.1-43.1-117.7-55.8-20.4-6.7-56.2-16.5-64.3-17.6-1.4-.2-8.8-1.5-16.5-3-7.7-1.5-15.3-2.9-17-3.1-8.9-1-12.2-1.4-14.5-1.8-3.9-.7-21-2.4-32-3.2-4.1-.4-37.9-.8-75.2-1l-67.6-.3V1167z"/></svg>