<?xml version="1.0" standalone="no"?>
<!DOCTYPE svg PUBLIC "-//W3C//DTD SVG 20010904//EN"
 "http://www.w3.org/TR/2001/REC-SVG-20010904/DTD/svg10.dtd">
<svg version="1.0" xmlns="http://www.w3.org/2000/svg"
 width="2362.000000pt" height="2362.000000pt" viewBox="0 0 2362.000000 2362.000000"
 preserveAspectRatio="xMidYMid meet">
<metadata>
Created by potrace 1.11, written by Peter Selinger 2001-2013
</metadata>
<g transform="translate(0.000000,2362.000000) scale(0.100000,-0.100000)"
fill="#000000" stroke="none">
<path d="M9930 21648 c-511 -53 -1003 -374 -1307 -853 -53 -84 -156 -275 -147
-275 2 0 -2 -10 -10 -22 -44 -71 -134 -373 -161 -543 -8 -49 -17 -110 -21
-135 -4 -25 -8 -1966 -10 -4313 -1 -2348 -4 -4271 -7 -4273 -3 -3 -31 -1 -63
5 -103 18 -163 27 -259 37 -33 3 -71 7 -85 10 -38 6 -284 17 -385 17 -96 0
-350 -11 -400 -17 -16 -2 -57 -7 -90 -10 -100 -11 -135 -16 -255 -37 -63 -12
-126 -23 -140 -25 -14 -3 -33 -7 -42 -10 -10 -3 -30 -7 -45 -10 -127 -22 -459
-126 -638 -199 -11 -5 -23 -9 -26 -9 -21 -3 -435 -203 -504 -244 -195 -114
-350 -216 -500 -330 -54 -42 -108 -83 -120 -93 -413 -343 -706 -675 -991
-1120 -61 -95 -74 -117 -159 -270 -162 -292 -334 -726 -419 -1059 -18 -71 -65
-280 -70 -315 -4 -22 -13 -76 -21 -120 -13 -75 -19 -111 -31 -210 -2 -22 -6
-56 -9 -75 -26 -202 -27 -863 -1 -1007 2 -10 7 -49 11 -87 4 -38 9 -79 11 -90
2 -12 5 -37 8 -56 8 -62 37 -223 53 -290 8 -36 16 -72 18 -80 38 -171 122
-452 175 -585 195 -492 381 -831 657 -1198 211 -279 491 -573 732 -767 24 -19
58 -47 75 -61 54 -44 188 -143 281 -206 420 -284 898 -498 1385 -619 55 -13
98 -24 120 -28 14 -2 70 -13 125 -24 88 -18 131 -25 225 -38 14 -2 54 -6 90
-10 36 -3 73 -8 83 -10 114 -21 654 -20 817 1 45 6 122 15 180 21 25 2 52 6
60 9 8 2 33 6 55 10 322 46 740 174 1085 330 665 301 1271 789 1722 1385 299
396 532 830 693 1290 20 58 38 112 41 120 2 8 15 53 30 100 14 47 27 92 29
100 21 78 45 177 59 235 22 94 72 403 80 490 4 39 8 84 11 100 16 130 19 1058
19 6895 0 5900 -2 6724 -18 6806 -3 12 -7 39 -10 60 -25 157 -83 369 -133 484
-9 19 -22 51 -30 70 -33 80 -109 221 -167 310 -302 461 -741 755 -1241 830
-96 15 -312 19 -415 8z"/>
<path d="M18629 21647 c-2 -3 -32 -8 -66 -11 -35 -4 -68 -8 -75 -11 -7 -2 -31
-7 -53 -10 -48 -7 -168 -39 -250 -67 -75 -26 -302 -137 -371 -180 -335 -215
-600 -540 -737 -909 -39 -104 -81 -256 -91 -329 -3 -25 -8 -56 -11 -70 -16
-80 -18 -435 -18 -2896 l0 -2712 -816 -1 c-449 0 -836 -3 -861 -5 -328 -31
-631 -137 -908 -319 -292 -192 -565 -522 -693 -837 -16 -41 -34 -84 -39 -95
-10 -22 -48 -145 -54 -179 -3 -11 -12 -52 -20 -91 -27 -127 -36 -224 -36 -385
0 -163 13 -274 46 -415 8 -33 16 -67 19 -76 36 -158 182 -463 287 -604 117
-157 296 -336 423 -425 27 -19 54 -39 60 -43 155 -120 516 -266 745 -302 25
-4 52 -9 60 -10 79 -15 278 -18 975 -19 l810 -1 1 -3440 c1 -3107 3 -3574 19
-3655 3 -13 7 -42 10 -65 11 -76 56 -238 92 -334 247 -650 851 -1115 1533
-1179 139 -13 369 -6 475 13 421 79 745 248 1027 536 96 99 217 260 277 369
84 154 163 349 187 464 21 98 27 133 39 216 11 79 13 1458 12 8275 -1 4499 -5
8191 -9 8205 -4 14 -9 43 -13 65 -21 145 -85 344 -161 500 -215 446 -603 785
-1080 944 -175 59 -322 82 -545 87 -102 3 -187 3 -190 1z"/>
</g>
</svg>
