<svg version="1" xmlns="http://www.w3.org/2000/svg" width="1365.333" height="1365.333" viewBox="0 0 1024.000000 1024.000000"><path d="M220.6 134.7c-.3 1.1-7.1 8.4-15.1 16.3L191 165.3v725.8l121.3-.4c89.9-.2 124.3-.6 133.2-1.6 16.9-1.8 44.5-5.7 54-7.6 20.8-4.2 45.4-10.6 59-15.5 3.3-1.2 8-2.8 10.4-3.6 2.4-.7 4.9-1.8 5.5-2.3.6-.4 2.4-1.1 3.9-1.5 7.6-1.8 50.3-23.2 58.4-29.2 1.7-1.3 3.5-2.4 3.8-2.4.9 0 9.9-6.3 10.3-7.3.2-.4.8-.7 1.4-.7.6 0 2.8-1.4 5-3.2 2.2-1.7 5.6-4.2 7.6-5.6 3.6-2.4 15.7-12.6 17.7-14.8.6-.7 1.5-1.3 2.2-1.5 1.8-.6 56-54.4 64.8-64.4 13-14.8 26.2-33.4 37.2-52.5 4.7-8.2 16.3-31.3 16.3-32.5 0-.3.8-2.5 1.9-4.8 3-6.7 7.8-20.3 11.5-32.7 24.4-81 21.4-191.4-7.4-270-8.5-23.1-20.8-47.7-31.8-63.5-2-2.8-4.5-6.4-5.6-8-16.1-23.2-44.7-50.1-72.1-67.8-18.1-11.8-30.5-18.2-56-29.2-9-3.8-38.5-13.7-44.7-15-1.8-.3-5.3-1.2-7.8-2-15.1-4.5-49.8-10.6-76-13.4-38.6-4.2-44.6-4.4-170.7-4.8-119.4-.4-123.1-.4-123.7 1.4zm233.6 133.8c30 2.9 54.4 7.7 77.8 15.5 10.6 3.5 10.7 3.5 28 11.9s26.3 14 36.7 22.8c2.8 2.3 5.5 4.3 6 4.3 1 0 20.3 19.5 20.3 20.5 0 .3 2.4 3.5 5.3 7 9.3 11.3 17.8 25.8 25.6 44 3.5 7.9 3.8 8.8 5.1 12.5.7 1.9 1.6 4.4 2 5.5.7 1.9 3.1 9.8 3.6 12 .1.5.9 3.7 1.8 7 6.9 26.6 9.6 51.6 9.6 90 0 38.8-2 58-9.2 87.5-1.1 4.6-2.1 8.9-2.3 9.5-.1.5-.5 1.7-.8 2.5-.3.8-1.7 5.3-3.2 10-1.5 4.7-3.2 9.8-4 11.5-.7 1.6-1.8 4.1-2.3 5.5-1.3 3-9.9 20.4-12.7 25.8-2.5 4.6-7 11.5-10.8 16.4-1.6 2.1-2.5 3.8-2 3.8 2.2 0-15.7 15.5-25.3 21.9-9.4 6.2-31.1 17.8-40.9 21.8-24 9.8-57.3 17.4-88.5 20.2-14.1 1.2-14.8 1.3-80.7 1.2L340 759V267h49c36.4 0 53.1.4 65.2 1.5z"/></svg>