<?xml version="1.0" standalone="no"?>
<!DOCTYPE svg PUBLIC "-//W3C//DTD SVG 20010904//EN"
 "http://www.w3.org/TR/2001/REC-SVG-20010904/DTD/svg10.dtd">
<svg version="1.0" xmlns="http://www.w3.org/2000/svg"
 width="1024.000000pt" height="1024.000000pt" viewBox="0 0 1024.000000 1024.000000"
 preserveAspectRatio="xMidYMid meet">
<metadata>
Created by potrace 1.11, written by Peter Selinger 2001-2013
</metadata>
<g transform="translate(0.000000,1024.000000) scale(0.100000,-0.100000)"
fill="#000000" stroke="none">
<path d="M2206 8893 c-3 -11 -71 -84 -151 -163 l-145 -143 0 -3629 0 -3629
1213 4 c899 2 1243 6 1332 16 169 18 445 57 540 76 208 42 454 106 590 155 33
12 80 28 104 36 24 7 49 18 55 23 6 4 24 11 39 15 76 18 503 232 584 292 17
13 35 24 38 24 9 0 99 63 103 73 2 4 8 7 14 7 6 0 28 14 50 32 22 17 56 42 76
56 36 24 157 126 177 148 6 7 15 13 22 15 18 6 560 544 648 644 130 148 262
334 372 525 47 82 163 313 163 325 0 3 8 25 19 48 30 67 78 203 115 327 244
810 214 1914 -74 2700 -85 231 -208 477 -318 635 -20 28 -45 64 -56 80 -161
232 -447 501 -721 678 -181 118 -305 182 -560 292 -90 38 -385 137 -447 150
-18 3 -53 12 -78 20 -151 45 -498 106 -760 134 -386 42 -446 44 -1707 48
-1194 4 -1231 4 -1237 -14z m2336 -1338 c300 -29 544 -77 778 -155 106 -35
107 -35 280 -119 173 -84 263 -140 367 -228 28 -23 55 -43 60 -43 10 0 203
-195 203 -205 0 -3 24 -35 53 -70 93 -113 178 -258 256 -440 35 -79 38 -88 51
-125 7 -19 16 -44 20 -55 7 -19 31 -98 36 -120 1 -5 9 -37 18 -70 69 -266 96
-516 96 -900 0 -388 -20 -580 -92 -875 -11 -46 -21 -89 -23 -95 -1 -5 -5 -17
-8 -25 -3 -8 -17 -53 -32 -100 -15 -47 -32 -98 -40 -115 -7 -16 -18 -41 -23
-55 -13 -30 -99 -204 -127 -258 -25 -46 -70 -115 -108 -164 -16 -21 -25 -38
-20 -38 22 0 -157 -155 -253 -219 -94 -62 -311 -178 -409 -218 -240 -98 -573
-174 -885 -202 -141 -12 -148 -13 -807 -12 l-533 1 0 2460 0 2460 490 0 c364
0 531 -4 652 -15z"/>
</g>
</svg>
