<?xml version="1.0" standalone="no"?>
<!DOCTYPE svg PUBLIC "-//W3C//DTD SVG 20010904//EN"
 "http://www.w3.org/TR/2001/REC-SVG-20010904/DTD/svg10.dtd">
<svg version="1.0" xmlns="http://www.w3.org/2000/svg"
 width="1024.000000pt" height="1024.000000pt" viewBox="0 0 1024.000000 1024.000000"
 preserveAspectRatio="xMidYMid meet">
<metadata>
Created by potrace 1.11, written by Peter Selinger 2001-2013
</metadata>
<g transform="translate(0.000000,1024.000000) scale(0.100000,-0.100000)"
fill="#000000" stroke="none">
<path d="M2196 8880 c-7 -14 -19 -23 -27 -22 -8 2 -11 0 -6 -4 9 -9 -23 -45
-34 -38 -5 3 -9 0 -9 -5 0 -14 -82 -97 -92 -93 -8 2 -12 -13 -9 -30 0 -5 -5
-8 -13 -8 -8 0 -17 -7 -20 -16 -3 -8 -11 -12 -17 -8 -7 4 -9 3 -6 -3 6 -10
-35 -53 -51 -53 -9 0 -9 -7201 1 -7217 4 -6 3 -14 -2 -17 -5 -4 -8 -14 -7 -23
3 -17 65 -18 1072 -18 734 -1 1074 2 1083 9 11 8 13 8 7 -1 -5 -9 0 -12 18
-11 15 1 26 6 26 11 0 4 5 5 12 1 19 -12 206 -3 228 11 9 5 15 4 18 -3 2 -7 9
-9 15 -5 12 8 31 10 147 16 36 1 70 5 75 8 6 3 26 7 45 8 46 3 105 9 105 11 0
2 36 8 85 14 46 5 101 15 124 22 10 4 35 8 55 9 20 2 36 4 36 5 0 2 38 11 53
12 6 1 12 4 12 8 0 4 11 5 25 2 15 -2 25 0 25 7 0 7 10 10 25 7 13 -3 27 0 31
5 3 6 12 8 20 5 8 -3 14 -1 14 4 0 6 3 9 8 9 30 -5 72 3 66 12 -4 6 1 9 12 8
11 -2 30 3 43 10 17 9 21 10 16 1 -5 -9 -1 -8 16 1 13 7 29 12 36 11 6 -1 14
2 18 8 3 5 16 10 29 10 12 0 26 3 30 7 3 4 13 8 21 10 8 2 21 4 29 6 8 2 20 8
28 15 8 6 18 9 21 5 4 -3 13 0 22 7 8 7 15 9 15 4 0 -4 6 0 13 11 10 12 16 15
21 6 5 -8 11 -7 22 4 9 8 19 13 24 10 5 -3 11 -1 15 4 3 6 13 7 22 4 10 -4 14
-2 10 4 -8 12 20 26 34 17 5 -3 9 -1 9 5 0 6 8 8 18 4 9 -3 14 -2 10 2 -5 5 2
13 15 20 15 8 24 8 29 1 5 -7 8 -5 8 4 0 9 10 16 22 17 11 1 24 7 28 13 4 7
10 11 14 11 25 -4 36 0 30 11 -5 7 -2 9 9 5 9 -3 17 -1 19 4 2 5 13 11 25 12
13 0 25 7 27 13 3 7 21 17 40 24 20 6 36 16 36 21 0 6 4 8 9 5 5 -3 20 3 33
14 14 11 28 16 32 13 3 -3 6 1 6 10 0 10 5 14 15 11 8 -4 15 -1 15 6 0 6 5 8
10 5 6 -3 10 -1 10 5 0 6 5 8 10 5 6 -3 10 -1 10 6 0 7 3 10 6 6 6 -6 17 2 55
36 11 10 29 19 39 20 10 1 18 6 17 11 -2 9 2 11 34 15 5 0 7 6 3 13 -5 8 -2 9
10 5 9 -4 15 -3 12 2 -3 5 10 16 29 25 21 10 33 22 29 28 -5 8 -1 9 10 5 10
-4 19 -1 22 8 4 8 11 15 18 15 6 0 26 13 44 30 18 16 35 30 38 30 8 0 49 45
47 52 -2 4 4 5 12 2 8 -4 17 1 21 10 3 9 13 16 21 16 8 0 11 5 8 10 -3 6 -1
10 5 10 6 0 30 18 54 40 23 22 47 36 51 32 5 -4 5 -1 1 6 -4 6 -2 12 3 12 6 0
11 7 11 15 0 8 5 15 10 15 6 0 13 0 18 1 4 0 13 11 20 25 7 13 17 24 22 24 5
0 11 9 15 19 3 11 12 18 20 15 7 -3 16 0 21 7 5 8 3 10 -7 4 -8 -4 -3 3 11 17
14 13 28 23 31 21 4 -1 9 7 12 18 3 12 10 18 17 14 6 -3 9 -3 8 2 -2 4 28 39
65 76 37 38 67 65 67 60 1 -4 7 3 15 17 7 14 17 24 22 23 4 -1 7 5 5 13 -2 8
1 14 5 13 21 -4 32 3 38 21 3 11 10 19 15 17 4 -1 7 2 6 6 0 5 10 15 24 22 14
8 21 14 16 15 -4 0 15 23 43 51 28 28 48 55 45 60 -3 5 -2 9 3 8 19 -3 34 2
29 10 -3 5 10 25 29 44 19 19 35 40 35 47 0 6 5 8 10 5 6 -3 10 1 10 10 0 8 7
18 15 21 8 4 15 13 15 21 0 8 4 11 10 8 6 -4 7 1 3 11 -4 11 -2 15 4 11 6 -4
16 7 23 23 7 17 16 30 21 30 5 0 14 11 19 25 5 14 14 25 20 25 5 0 10 5 10 12
0 6 8 20 18 31 12 15 13 18 2 13 -8 -4 -4 1 9 12 15 12 21 24 16 32 -5 8 -4
11 2 7 6 -4 21 14 34 38 13 25 28 45 34 45 5 0 3 5 -5 10 -13 8 -12 10 4 10
12 0 16 5 12 16 -3 9 -2 12 4 9 6 -4 13 7 16 24 4 17 10 28 14 26 5 -3 11 8
15 25 4 16 11 30 17 30 6 0 8 6 5 14 -3 8 1 17 9 20 9 3 12 10 9 16 -3 5 -2
10 2 10 5 0 17 23 28 50 11 28 23 50 28 50 4 0 6 4 3 8 -3 5 4 23 15 41 11 18
15 30 10 27 -5 -3 -4 5 2 19 7 14 16 25 20 25 5 0 5 5 2 10 -3 6 -1 10 5 10 6
0 9 4 5 10 -3 5 -1 17 4 27 9 17 21 48 26 66 2 4 4 9 5 12 1 3 4 10 5 15 1 6
4 13 5 18 1 4 2 10 1 15 0 4 4 7 11 7 6 0 9 3 5 6 -3 4 0 22 8 40 8 19 12 34
10 34 -2 0 2 12 10 27 8 15 12 30 9 35 -3 4 -2 14 3 21 4 6 8 17 10 22 1 6 5
21 8 35 4 14 8 33 8 43 1 9 5 17 10 17 5 0 7 6 4 14 -3 8 -3 17 1 20 3 4 7 14
8 24 3 30 9 47 19 54 6 5 6 8 -2 8 -9 0 -9 6 1 24 7 13 11 38 10 55 -1 17 2
31 6 31 5 0 7 11 5 25 -1 14 1 28 5 30 5 3 7 18 6 35 -1 16 1 30 4 30 3 0 5
16 5 35 -1 19 1 35 5 35 3 0 6 10 7 23 0 12 4 54 8 92 4 39 8 84 9 100 1 17 5
36 9 43 5 7 3 12 -4 12 -8 0 -9 4 0 13 8 10 7 17 -1 25 -7 7 -8 12 -2 12 5 0
11 49 12 112 2 62 5 115 8 119 2 4 -2 10 -8 12 -7 3 -8 6 -3 6 6 1 9 20 8 43
-1 24 -2 93 -4 153 -1 61 -6 116 -12 123 -5 7 -6 12 0 12 5 0 9 14 8 30 0 17
-3 30 -8 30 -4 0 -3 8 2 19 6 10 8 21 5 24 -3 3 -6 18 -8 34 -1 15 -6 34 -10
42 -5 8 -3 17 5 22 8 5 10 9 4 9 -5 0 -10 25 -10 55 0 30 -4 55 -9 55 -4 0 -6
14 -4 30 3 17 1 33 -4 36 -5 3 -6 10 -3 15 4 5 3 14 -1 21 -11 18 -10 68 1 68
6 0 5 4 -2 8 -6 4 -14 25 -17 47 -3 22 -9 61 -14 87 -5 26 -7 50 -4 53 3 3 1
5 -4 5 -6 0 -11 10 -12 23 -1 23 -5 42 -22 117 -6 25 -13 59 -16 75 -3 17 -9
32 -12 35 -8 6 -11 20 -14 55 -1 14 -5 25 -9 25 -3 0 -6 7 -7 15 -1 8 -3 22
-4 30 -1 8 -4 15 -7 15 -4 0 -8 12 -9 27 -1 15 -7 30 -13 34 -7 4 -9 11 -5 17
3 6 2 13 -4 17 -6 4 -8 11 -5 16 4 5 1 9 -5 9 -7 0 -10 7 -6 15 3 8 1 15 -5
15 -6 0 -7 5 -4 10 3 6 0 17 -8 25 -9 8 -14 26 -13 40 2 13 -1 22 -5 19 -8 -5
-14 17 -10 38 0 5 -5 7 -12 5 -7 -1 -11 6 -9 17 2 12 -1 16 -9 10 -7 -4 -10
-3 -5 4 3 6 -9 43 -29 83 -19 40 -35 79 -35 86 0 8 -4 12 -9 9 -4 -3 -14 13
-21 34 -7 22 -17 40 -23 40 -5 0 -6 7 -3 16 3 8 2 13 -3 10 -8 -5 -36 42 -33
57 1 4 -3 7 -8 7 -6 0 -18 17 -27 38 -10 20 -28 49 -42 65 -14 15 -21 27 -16
27 4 0 -2 9 -15 20 -13 11 -20 20 -16 20 4 0 -4 10 -17 23 -13 12 -22 27 -20
32 2 6 -9 18 -24 27 -16 10 -22 18 -16 18 7 0 -1 13 -17 29 -17 15 -30 33 -30
38 0 6 -8 17 -17 24 -15 12 -16 12 -8 -1 5 -9 5 -12 -1 -7 -5 5 -10 13 -10 18
-1 5 -2 14 -3 20 0 5 -5 7 -11 4 -5 -3 -10 -2 -10 3 0 15 -106 123 -113 115
-4 -3 -7 -1 -7 6 0 16 -26 42 -34 34 -3 -4 -6 -1 -6 6 0 16 -26 42 -34 34 -3
-4 -6 1 -6 10 0 9 -4 17 -9 17 -4 0 -22 12 -39 28 -16 15 -44 38 -62 52 -17
14 -40 33 -51 43 -10 9 -23 17 -29 17 -5 0 -10 5 -10 11 0 5 -4 7 -10 4 -5 -3
-10 1 -10 10 0 9 -4 14 -8 11 -5 -3 -20 6 -35 20 -15 14 -27 22 -27 19 0 -3
-12 6 -27 20 -25 23 -43 30 -66 26 -5 -1 -6 3 -2 9 3 5 -7 16 -22 22 -15 7
-34 18 -41 25 -8 7 -18 11 -23 8 -5 -4 -9 1 -9 10 0 9 -4 13 -10 10 -5 -3 -10
-2 -10 3 0 5 -7 9 -15 10 -8 1 -22 3 -30 4 -8 1 -12 4 -10 7 2 4 -13 17 -32
30 -19 12 -32 18 -29 12 4 -5 -7 -3 -24 5 -16 9 -32 19 -35 25 -4 5 -13 9 -21
9 -9 0 -22 7 -30 15 -9 8 -24 15 -35 15 -10 0 -19 4 -19 10 0 5 -3 9 -7 9 -5
-1 -11 0 -15 1 -5 1 -11 3 -15 4 -5 1 -32 14 -61 28 -28 15 -49 21 -46 15 3
-7 0 -5 -8 4 -7 9 -21 15 -30 13 -10 -1 -18 2 -18 7 0 5 -9 9 -20 9 -11 0 -20
4 -20 8 0 8 -7 10 -50 14 -11 1 -20 6 -20 10 0 4 -8 8 -18 8 -10 0 -22 3 -26
7 -3 4 -14 8 -24 10 -31 6 -37 8 -49 16 -7 5 -13 5 -13 0 0 -4 -5 -1 -10 7 -9
13 -10 13 -10 0 0 -12 -2 -12 -9 -2 -7 12 -27 19 -59 21 -8 1 -10 6 -6 14 6 9
5 9 -7 0 -10 -8 -19 -9 -25 -3 -6 6 -22 11 -37 12 -15 1 -27 5 -27 9 0 3 -6 6
-12 6 -7 0 -26 4 -43 8 -16 4 -47 10 -67 12 -21 3 -38 9 -38 14 0 4 -7 6 -15
3 -8 -4 -15 -2 -15 4 0 5 -11 7 -25 4 -14 -2 -25 0 -25 4 0 5 -12 9 -27 10
-25 0 -39 2 -108 17 -61 13 -104 20 -135 23 -19 1 -35 3 -35 4 0 1 -11 3 -25
5 -69 7 -195 27 -202 31 -4 3 -8 -1 -8 -8 0 -8 -3 -9 -8 -3 -4 6 -18 11 -32
12 -14 1 -43 3 -65 5 -22 2 -43 7 -47 13 -5 6 -8 5 -8 -3 0 -7 -5 -10 -11 -6
-6 4 -44 8 -83 10 -39 2 -71 4 -71 4 0 1 -23 2 -52 4 -29 1 -55 5 -59 8 -4 4
-16 2 -27 -3 -11 -7 -22 -7 -26 -2 -7 10 -107 10 -117 1 -3 -4 -15 -1 -25 5
-16 10 -21 9 -29 -3 -5 -8 -10 -10 -10 -4 0 7 -335 10 -1140 10 l-1141 0 -13
-26z m1984 -1315 c0 -5 4 -4 9 3 4 8 12 14 16 14 4 0 12 -6 16 -14 7 -10 9
-10 9 0 0 8 5 10 13 5 6 -4 46 -8 87 -8 41 0 81 -4 88 -8 7 -5 12 -3 12 3 0 6
5 8 10 5 6 -3 36 -8 68 -11 31 -3 80 -7 107 -10 28 -3 60 -6 73 -6 12 0 22 -5
22 -11 0 -8 3 -8 11 0 7 7 22 8 44 2 18 -5 37 -9 42 -8 4 1 10 0 13 -1 10 -4
64 -13 143 -25 15 -3 35 -9 45 -13 9 -5 22 -7 29 -5 6 2 14 0 17 -6 4 -6 13
-8 21 -4 9 3 15 -1 15 -8 0 -10 3 -10 12 -1 8 8 15 8 24 1 6 -5 23 -12 35 -15
32 -7 41 -10 60 -18 9 -4 20 -6 25 -5 16 2 54 -13 54 -23 0 -5 4 -6 10 -3 5 3
20 0 32 -6 21 -11 36 -16 75 -21 7 -1 10 -5 7 -10 -4 -7 10 -10 32 -7 4 0 10
-4 13 -10 4 -6 16 -12 26 -14 11 -2 52 -20 92 -39 39 -20 75 -33 79 -29 4 3 4
1 0 -6 -3 -6 -2 -14 4 -18 5 -3 10 -1 10 6 0 7 9 2 19 -10 11 -12 22 -22 25
-22 20 3 26 0 21 -9 -3 -6 1 -7 9 -4 11 4 16 0 17 -12 0 -11 3 -14 6 -6 3 8
11 5 25 -10 11 -13 16 -16 13 -8 -4 8 5 2 19 -15 19 -22 24 -25 19 -10 -5 16
-2 15 19 -7 14 -15 29 -24 32 -21 3 4 6 -1 6 -11 0 -9 4 -15 9 -12 5 3 12 -1
15 -10 4 -9 9 -14 12 -11 4 3 24 -12 46 -33 21 -22 45 -40 53 -40 8 0 15 -7
15 -15 0 -9 8 -19 18 -22 19 -8 52 -42 52 -55 0 -5 5 -6 10 -3 6 3 10 -1 10
-9 0 -9 5 -16 11 -16 5 0 7 -4 4 -10 -3 -6 1 -7 9 -4 11 4 16 0 16 -10 0 -9 9
-21 20 -28 11 -7 20 -17 20 -23 0 -6 9 -16 20 -23 11 -7 20 -19 20 -27 0 -7 8
-20 18 -27 9 -7 23 -25 31 -40 8 -16 20 -28 27 -28 8 0 11 -6 8 -15 -4 -8 -1
-15 5 -15 6 0 11 -7 11 -15 0 -8 5 -15 10 -15 6 0 10 -7 10 -16 0 -9 5 -12 12
-8 6 4 8 3 4 -4 -3 -6 0 -17 8 -25 8 -8 12 -17 9 -21 -4 -3 0 -6 7 -6 7 0 11
-3 7 -6 -3 -3 3 -15 13 -27 11 -11 17 -24 14 -29 -3 -4 -1 -8 5 -8 6 0 7 -7 4
-17 -4 -11 -3 -14 5 -9 8 5 12 0 12 -14 0 -12 4 -19 8 -16 4 2 9 -4 9 -15 2
-26 26 -79 35 -79 5 0 7 -3 7 -7 -1 -5 0 -11 1 -15 1 -5 3 -11 5 -15 2 -10 14
-42 25 -68 18 -43 23 -60 22 -67 -1 -5 2 -8 7 -8 5 0 8 -8 6 -17 -1 -10 2 -23
7 -30 5 -6 10 -27 11 -46 1 -19 5 -33 10 -30 4 2 7 -10 7 -26 0 -17 5 -31 12
-31 6 0 9 -2 6 -5 -3 -4 -1 -25 4 -48 19 -81 21 -92 22 -119 0 -16 5 -28 10
-28 4 0 6 -6 3 -14 -3 -8 -3 -17 1 -20 3 -4 7 -21 8 -39 2 -47 3 -49 16 -41 7
5 8 3 3 -7 -10 -15 -7 -88 3 -104 11 -17 11 -35 1 -35 -6 0 -7 -5 -4 -10 7
-11 15 -80 18 -147 1 -23 5 -45 9 -49 4 -4 4 -12 1 -18 -10 -16 -11 -56 -2
-61 4 -3 4 -18 -1 -34 -4 -15 -4 -34 0 -42 5 -7 5 -20 1 -28 -5 -9 -5 -24 -2
-34 4 -10 4 -44 0 -75 -3 -32 -3 -64 0 -72 6 -14 6 -37 1 -50 -1 -3 -4 -41 -6
-85 -4 -91 -12 -188 -14 -195 -4 -9 -7 -34 -8 -68 -2 -24 -6 -31 -14 -26 -10
6 -10 5 -1 -7 12 -15 13 -35 2 -54 -4 -5 -6 -25 -5 -43 0 -17 -3 -32 -8 -32
-4 0 -6 -6 -3 -14 3 -8 3 -17 -1 -20 -3 -4 -7 -12 -8 -19 -1 -7 -3 -23 -5 -37
-2 -14 -8 -28 -14 -32 -6 -5 -5 -8 4 -8 11 0 11 -3 1 -15 -7 -8 -10 -22 -6
-30 4 -11 2 -14 -6 -9 -7 5 -9 2 -5 -8 3 -9 3 -19 -1 -22 -6 -6 -10 -21 -17
-61 -2 -11 -4 -21 -5 -22 -2 -2 -3 -6 -5 -10 -1 -5 -5 -16 -9 -25 -4 -9 -9
-25 -11 -35 -2 -10 -4 -19 -4 -20 -1 -2 -1 -6 -2 -10 -1 -5 -6 -17 -12 -28 -6
-11 -12 -24 -12 -30 -1 -11 -10 -35 -30 -80 -8 -16 -11 -33 -9 -37 3 -4 0 -8
-6 -8 -7 0 -10 -7 -6 -15 3 -9 0 -15 -9 -15 -9 0 -12 -6 -9 -15 4 -8 1 -15 -6
-15 -6 0 -8 -4 -5 -10 3 -5 0 -10 -7 -10 -9 0 -9 -3 2 -10 8 -5 10 -10 4 -10
-7 0 -15 -11 -18 -25 -4 -14 -11 -23 -16 -20 -6 3 -10 -3 -10 -14 0 -12 -6
-21 -12 -22 -10 0 -10 -2 0 -6 10 -4 8 -9 -6 -21 -10 -10 -24 -32 -31 -49 -8
-18 -18 -33 -23 -33 -5 0 -7 -4 -3 -9 3 -6 -1 -13 -9 -18 -8 -4 -15 -11 -15
-15 -2 -17 -64 -109 -79 -118 -10 -5 -12 -10 -5 -10 7 0 -6 -18 -28 -40 -22
-22 -37 -44 -34 -50 4 -6 3 -10 -2 -9 -21 4 -34 -2 -27 -13 4 -6 3 -8 -4 -4
-6 3 -13 2 -17 -4 -4 -6 -11 -7 -17 -4 -6 4 -8 3 -5 -3 6 -9 -26 -43 -40 -43
-3 0 -12 -8 -20 -17 -10 -12 -12 -13 -8 -3 4 10 2 9 -8 -2 -8 -10 -19 -18 -25
-18 -6 0 -12 -4 -14 -9 -1 -5 -10 -11 -18 -13 -8 -2 -21 -11 -28 -21 -7 -9
-18 -15 -23 -12 -5 4 -12 -1 -15 -9 -3 -9 -10 -13 -15 -10 -5 3 -9 0 -9 -6 0
-7 -7 -10 -15 -6 -8 3 -15 2 -15 -3 0 -4 -21 -19 -47 -32 -27 -13 -51 -28 -55
-34 -4 -5 -8 -6 -8 -1 0 5 -7 3 -15 -4 -8 -7 -15 -9 -15 -4 0 5 -4 3 -9 -4 -4
-7 -16 -14 -25 -16 -10 -1 -21 -8 -25 -15 -5 -7 -11 -12 -15 -12 -19 2 -66
-13 -66 -21 0 -5 -6 -8 -12 -7 -7 1 -29 -5 -48 -14 -19 -8 -38 -13 -42 -11 -5
3 -8 1 -8 -4 0 -5 -6 -9 -12 -10 -19 -1 -39 -7 -73 -21 -16 -7 -44 -13 -62
-14 -17 -1 -31 -6 -30 -12 1 -5 -10 -9 -25 -9 -16 1 -28 -3 -28 -9 0 -6 -2 -8
-5 -5 -4 3 -25 1 -48 -4 -146 -33 -290 -57 -369 -61 -16 -1 -28 -4 -28 -7 0
-3 -19 -6 -43 -7 -23 0 -103 -4 -177 -8 -74 -4 -220 -7 -325 -8 -122 0 -193
-4 -197 -11 -6 -8 -8 -8 -8 0 0 15 -462 14 -472 0 -5 -8 -8 -8 -8 0 0 7 -30
11 -90 10 -52 -1 -91 3 -93 9 -2 5 -3 38 -2 72 1 38 -2 60 -8 56 -6 -4 -7 -1
-2 8 13 20 14 120 2 112 -6 -4 -7 -1 -1 8 12 19 12 519 0 512 -5 -4 -6 0 -1 8
13 20 14 120 2 112 -6 -4 -7 -1 -1 8 12 19 12 359 0 352 -5 -4 -6 0 -1 8 13
20 14 120 2 112 -6 -4 -7 -1 -1 8 12 20 13 199 1 192 -6 -4 -7 -1 -2 8 13 20
14 120 2 112 -6 -4 -7 -1 -1 8 12 20 12 259 -1 259 -7 0 -7 3 0 8 13 9 14 413
1 405 -5 -4 -6 0 -1 8 13 20 14 120 2 112 -6 -4 -7 -1 -1 8 12 20 12 419 -1
419 -7 0 -7 3 0 8 13 9 15 253 1 245 -5 -4 -6 -1 -1 8 13 20 14 120 2 112 -6
-4 -7 -1 -1 8 12 20 13 199 1 192 -6 -4 -7 -1 -2 8 13 20 14 120 2 112 -6 -4
-7 -1 -1 8 12 19 12 359 0 352 -5 -4 -6 0 -1 8 13 20 14 120 2 112 -6 -4 -7
-1 -1 8 12 19 12 519 0 512 -5 -4 -6 0 -1 8 13 20 14 120 2 112 -6 -4 -7 -1
-1 8 13 21 13 169 0 170 -6 1 5 4 24 8 61 11 760 7 760 -4z"/>
</g>
</svg>
