<svg version="1" xmlns="http://www.w3.org/2000/svg" width="1008" height="1008" viewBox="0 0 756.000000 756.000000"><path d="M164 97.8c0 .6 23.5 24.6 52.3 53.3l52.2 52.3 34 .2c36.2.1 47.7.7 59.5 2.9 1.9.4 4.4.8 5.5 1 9 1.3 25.3 6.4 35.3 11 8 3.7 19.5 10.4 20 11.7.2.4.9.8 1.6.8.7 0 2.9 1.6 4.9 3.5 2.1 2 3.7 3.3 3.7 2.9 0-.5 4.3 3.7 9.6 9.2 12.4 12.9 12.4 12.9 12.4 14.1 0 .6.7 1.4 1.6 1.7.8.3 1.2 1 .9 1.6-.3.6.1 1.3.9 1.6.9.3 2.2 1.8 3 3.2.8 1.5 2.5 4.7 3.8 7.2 1.3 2.5 3.1 5.6 3.8 7 .8 1.4 1.5 2.7 1.5 3 .1.3 1.2 2.7 2.4 5.5 1.3 2.7 2.4 5.4 2.5 6 .2.5.6 1.8 1 2.7.4.9.9 2.2 1 3 .2.7.6 2 .9 2.8.9 2.1 4.5 15.9 5.2 19.5.2 1.6.9 5.5 1.4 8.5.9 5 1.7 11.5 2.7 23.4 1.6 18.9-.4 51.6-4.3 68.1-.4 1.6-.7 3.4-.8 4-.2 2.9-3.6 15.3-5.2 19.5-.4.8-.7 1.8-.8 2.2-.2.5-.3.9-.5 1-.1.2-.3 1-.5 1.8-.3 1.5-6 14.8-8.7 20.2-.7 1.6-1.7 2.8-2.1 2.8-.5 0-.6.4-.3.9.3.4-.3 1.9-1.4 3.1-1.1 1.2-2.2 3.1-2.5 4.1-.4 1.1-1.1 1.9-1.6 1.9s-.9.6-.9 1.3c0 .7-.9 2.3-2 3.5-1.2 1.2-1.8 2.2-1.4 2.2.4 0-.5 1.1-2 2.5s-2.4 2.5-2.1 2.5c.3 0-1.1 1.9-3.2 4.2-6.3 7-16.3 16.9-16.3 16.1 0-.4-.8.2-1.9 1.3-2.7 2.9-7.1 6.5-7.1 5.9 0-.3-.9.3-2 1.3-6.6 6.1-35.5 18.3-49.2 20.7-1.6.3-4.2.7-6 1-1.7.3-3.4.7-3.7.9-.6.4-10.7 1.5-18.1 2.1-1.9.2-19.1.4-38.2.4l-34.7.1-52.1 52c-28.6 28.7-52 52.5-52 53.1 0 1 189.5.6 195.5-.4 1.7-.3 5.9-.8 9.5-1.1 7.4-.8 11.9-1.3 17-2.2 1.9-.3 4.9-.7 6.5-1 3.1-.4 4-.6 9-1.8 12-2.9 16.3-3.8 18.1-4.2 1.2-.2 7.3-2.1 13.5-4.1 6.3-2 11.7-3.8 12.2-3.9.4-.1.8-.2 1-.4.1-.1 1.1-.3 2.1-.5s2.2-.9 2.6-1.5c.4-.6 1.1-1 1.6-.9.5.1 3.2-.9 5.9-2.2 2.8-1.3 5.2-2.4 5.5-2.4 1.7-.4 14.1-6.8 14.5-7.6.4-.5 1.1-.7 1.6-.4.5.4.9.1.9-.5s.5-.8 1-.5c.6.3 1 .1 1-.4 0-.6.7-1.1 1.5-1.1s1.5-.5 1.5-1.1c0-.5.5-.7 1-.4.6.3 1 .2 1-.3s1.5-1.6 3.2-2.3c1.8-.7 4.4-2.4 5.8-3.6 1.4-1.3 3-2.3 3.7-2.3.7 0 1.3-.5 1.3-1.2 0-.6.3-.9.6-.5.3.3 1.8-.5 3.2-1.9 1.5-1.3 3-2.4 3.4-2.4.5 0 1.6-.8 2.6-1.7 2.5-2.4 5.5-4.7 6.7-5.3 2.3-1.2 34.5-32.4 34.7-33.7 0-.5.9-1.7 1.9-2.8 4.1-4.4 7.1-8.2 10-12.8 1.7-2.6 3.6-4.7 4.2-4.7.6 0 .8-.3.5-.6-.5-.5 4.6-9.1 7.2-12.1.5-.7 1-1.7 1-2.3 0-.5.5-1 1.2-1 .6 0 .9-.3.6-.6-.3-.3 1.1-3.5 3.1-7.2s4.7-9.2 6.1-12.2c1.4-3 2.9-5.8 3.5-6.2.5-.4.7-.8.2-.8-.4 0-.1-1.3.8-3 3.2-6.2 13.2-38 15-48 .3-1.4.7-3.5 1-4.8 1-4.6 1.3-5.8 2-10.2.4-2.5.9-5.3 1.1-6.4.2-1 .6-4.1.9-7 .4-2.8.8-6.5 1-8.1 2.6-20 2.6-64.4 0-83.5-1.6-11.3-2.5-16.8-4-23-.6-2.7-1.2-5.3-1.9-8.5-.2-1.1-.9-3.2-1.5-4.8-.6-1.5-.8-2.7-.6-2.7.3 0-.1-1.6-.9-3.5s-1.2-3.5-.8-3.5c.3 0 .1-.5-.6-1.2s-1.2-2-1.2-3c0-.9-.6-3.2-1.4-5-3.1-7.3-5.1-12.3-5.1-12.8-.1-.3-.7-1.6-1.5-3-.7-1.4-1.3-2.6-1.2-2.8.1-.1-1.7-3.9-4-8.5-2.3-4.5-4.1-8.5-4-9 .1-.4-.3-.7-.9-.7-.5 0-.7-.5-.4-1 .3-.6.1-1-.4-1-.6 0-1.1-.7-1.1-1.5s-.5-1.5-1.2-1.5c-.6 0-.9-.3-.5-.6.3-.3.1-1.1-.4-1.8-1.3-1.5-7.9-11.7-7.9-12.2 0-.2-.9-1.4-2-2.6-1-1.3-1.8-2.6-1.7-2.9.1-.3-1.1-1.8-2.8-3.3-1.6-1.5-2.3-2.4-1.5-2.1.8.4.2-.4-1.4-1.9-1.6-1.4-2.7-2.6-2.3-2.6.6 0-3.5-4.8-9.1-10.6-1.8-1.9-3-3.4-2.8-3.4.3 0-3.8-4.2-9.1-9.3-5.3-5-11.9-11.4-14.7-14.2-2.8-2.7-5.2-4.8-5.4-4.6-.2.1-2.1-1.3-4.3-3.2-2.1-2-3.9-3.4-3.9-3.1 0 .4-3.3-2.1-6.1-4.8-.9-.9-2-1.4-2.3-1.1-.3.4-.6.2-.6-.3s-1.6-1.8-3.5-2.8c-1.9-1.1-3.5-2.3-3.5-2.8s-.4-.7-.9-.3c-.6.3-1.4-.3-2-1.2-.5-1-1.3-1.8-1.8-1.7-.4.1-2.5-1-4.6-2.3-2-1.3-5.3-3.1-7.2-4-1.9-.9-3.5-2.1-3.5-2.5 0-.5-.4-.6-1-.3-.5.3-1 .1-1-.5s-.4-.9-.9-.6c-.5.3-1.9-.3-3.2-1.3-1.3-1-2.8-1.9-3.4-2.1-.5-.1-2.9-1-5.2-2.1-2.3-1-4.7-1.9-5.2-1.9-.6 0-1.1-.4-1.1-.8 0-.5-.6-.9-1.2-.9-1.1 0-10.4-3.4-17.3-6.3-1.1-.5-3.8-1.4-6-2-2.2-.6-4.7-1.4-5.5-1.7-.8-.3-1.9-.7-2.5-.8-.5-.2-4.6-1.2-9-2.3-9.1-2.4-12.5-3.1-17.5-3.8-1.9-.3-4.2-.7-5-1-.8-.3-3.7-.7-6.5-1-2.7-.3-5.6-.7-6.4-1-.7-.2-4.1-.7-7.5-1-3.3-.3-7.4-.8-9.1-1.1-5.7-1-199.5-1.5-199.5-.5z"/><path d="M137 379c0 90.7.3 165 .8 165 .4 0 30.1-29.4 66-65.3l65.2-65.2V344.2l-65.1-65.1c-35.9-35.8-65.6-65.1-66-65.1-.5 0-.9 73.1-.9 165z"/></svg>