<?xml version="1.0" encoding="UTF-8" standalone="no"?>
<!-- Generator: Adobe Illustrator 19.0.0, SVG Export Plug-In . SVG Version: 6.00 Build 0)  -->

<svg
   xmlns:dc="http://purl.org/dc/elements/1.1/"
   xmlns:cc="http://creativecommons.org/ns#"
   xmlns:rdf="http://www.w3.org/1999/02/22-rdf-syntax-ns#"
   xmlns:svg="http://www.w3.org/2000/svg"
   xmlns="http://www.w3.org/2000/svg"
   xmlns:sodipodi="http://sodipodi.sourceforge.net/DTD/sodipodi-0.dtd"
   xmlns:inkscape="http://www.inkscape.org/namespaces/inkscape"
   version="1.1"
   id="Layer_1"
   x="0px"
   y="0px"
   viewBox="0 0 511.999 350.00001"
   xml:space="preserve"
   inkscape:version="0.91 r13725"
   sodipodi:docname="computer.svg"
   width="511.99899"
   height="350"><metadata
     id="metadata61"><rdf:RDF><cc:Work
         rdf:about=""><dc:format>image/svg+xml</dc:format><dc:type
           rdf:resource="http://purl.org/dc/dcmitype/StillImage" /><dc:title></dc:title></cc:Work></rdf:RDF></metadata><defs
     id="defs59" /><sodipodi:namedview
     pagecolor="#ffffff"
     bordercolor="#666666"
     borderopacity="1"
     objecttolerance="10"
     gridtolerance="10"
     guidetolerance="10"
     inkscape:pageopacity="0"
     inkscape:pageshadow="2"
     inkscape:window-width="1920"
     inkscape:window-height="1001"
     id="namedview57"
     showgrid="false"
     inkscape:zoom="0.46093841"
     inkscape:cx="-287.13142"
     inkscape:cy="201.81757"
     inkscape:window-x="-9"
     inkscape:window-y="-9"
     inkscape:window-maximized="1"
     inkscape:current-layer="layer2" /><g
     id="g15"
     transform="matrix(0.99233194,-0.12360148,0.12360148,0.99233194,-8.5898856,-58.887816)"><g
       id="g17" /></g><g
     id="g27"
     transform="translate(0,-161.99846)" /><g
     id="g29"
     transform="translate(0,-161.99846)" /><g
     id="g31"
     transform="translate(0,-161.99846)" /><g
     id="g33"
     transform="translate(0,-161.99846)" /><g
     id="g35"
     transform="translate(0,-161.99846)" /><g
     id="g37"
     transform="translate(0,-161.99846)" /><g
     id="g39"
     transform="translate(0,-161.99846)" /><g
     id="g41"
     transform="translate(0,-161.99846)" /><g
     id="g43"
     transform="translate(0,-161.99846)" /><g
     id="g45"
     transform="translate(0,-161.99846)" /><g
     id="g47"
     transform="translate(0,-161.99846)" /><g
     id="g49"
     transform="translate(0,-161.99846)" /><g
     id="g51"
     transform="translate(0,-161.99846)" /><g
     id="g53"
     transform="translate(0,-161.99846)" /><g
     id="g55"
     transform="translate(0,-161.99846)" /><path
     style="fill:none;fill-opacity:1;fill-rule:evenodd;stroke:#8264ff;stroke-width:40;stroke-linecap:butt;stroke-linejoin:miter;stroke-miterlimit:4;stroke-dasharray:none;stroke-opacity:1"
     d="M 63.663454,281.73437 C 60.595336,41.65411 65.964544,39.353021 65.964544,39.353021 l 378.912606,2.301089 2.30109,231.64293"
     id="path3389"
     inkscape:connector-curvature="0"
     sodipodi:nodetypes="cccc" /><g
     inkscape:groupmode="layer"
     id="layer2"
     inkscape:label="Bottom"><g
       style=""
       id="g3"
       transform="matrix(1,0,0,1.2034972,0,-104.57434)"><g
         id="g5"><path
           d="m 422.846,132.411 -333.692,0 c -6.085,0 -11.019,4.933 -11.019,11.019 l 0,166.424 c 0,6.086 4.934,11.019 11.019,11.019 6.085,0 11.019,-4.933 11.019,-11.019 l 0,-155.406 311.654,0 0,155.405 0,0 c 0,6.086 4.934,11.019 11.019,11.019 6.085,0 11.019,-4.933 11.019,-11.019 l 0,-166.424 c -0.001,-6.085 -4.935,-11.018 -11.019,-11.018 z"
           id="path7"
           inkscape:connector-curvature="0" /></g></g><rect
       style="fill:none;fill-opacity:1;stroke:#8264ff;stroke-width:34.05632019;stroke-miterlimit:4;stroke-dasharray:none;stroke-opacity:1"
       id="rect4202"
       width="445.78934"
       height="21.491026"
       x="32.386677"
       y="293.16321" /><rect
       y="69.081062"
       x="91.989037"
       height="210.16611"
       width="323.66391"
       id="rect4215"
       style="fill:#fafafa;fill-opacity:1;stroke:none;stroke-width:40;stroke-miterlimit:4;stroke-dasharray:none;stroke-opacity:1" /><rect
       style="fill:#fafafa;fill-opacity:1;stroke:none;stroke-width:40;stroke-miterlimit:4;stroke-dasharray:none;stroke-opacity:1"
       id="rect4217"
       width="99.558701"
       height="37.709438"
       x="208.05678"
       y="264.66797" /></g><g
     inkscape:groupmode="layer"
     id="layer1"
     inkscape:label="Top"><path
       transform="matrix(0.99233194,-0.12360148,0.12360148,0.99233194,-8.5898856,-58.887816)"
       style=""
       d="m 272.331,196.459 c -4.304,-4.303 -11.279,-4.303 -15.584,0 l -96.85209,95.04695 c -4.303,4.303 -4.303,11.28 0,15.583 2.152,2.152 4.972,3.227 7.791,3.227 2.82,0 5.639,-1.077 7.791,-3.227 L 272.331,212.043 c 4.34335,-4.26227 4.303,-11.28 0,-15.584 z"
       id="path19"
       inkscape:connector-curvature="0"
       sodipodi:nodetypes="cccsscsc" /><g
       style=""
       id="g21"
       transform="matrix(0.99233194,-0.12360148,0.12360148,0.99233194,-10.502257,-51.086323)"><g
         id="g23"><path
           d="m 313.405,236.619 c -4.304,-4.303 -11.279,-4.303 -15.583,0 l -60.15258,60.84727 c -4.27822,4.32763 -4.303,11.28 0,15.584 2.152,2.152 4.972,3.227 7.791,3.227 2.821,0 5.65139,-1.06268 7.791,-3.227 L 313.404,252.203 c 4.304,-4.303 4.304,-11.28 10e-4,-15.584 z"
           id="path25"
           inkscape:connector-curvature="0"
           sodipodi:nodetypes="ccscsscc" /></g></g><g
       style=""
       id="g9"
       transform="translate(0,-77.62908)"><g
         id="g11" /></g><path
       transform="translate(0,-77.62908)"
       style=""
       d="m 502.083,349.202 -20.295,0 0,-231.405 c 0,-18.366 -14.942,-33.308 -33.308,-33.308 l -384.96,0 c -18.367,0 -33.308,14.942 -33.308,33.308 l 0,231.405 -20.295,0 C 4.44,349.202 0,353.641 0,359.119 l 0,19.468 c 0,26.977 21.947,48.924 48.924,48.924 l 414.151,0 c 26.977,0 48.924,-21.947 48.924,-48.924 l 0,-19.468 c 10e-4,-5.478 -4.438,-9.917 -9.916,-9.917 z M 52.249,117.797 c 0,-6.214 5.057,-11.271 11.271,-11.271 l 384.958,0 c 6.216,0 11.271,5.056 11.271,11.271 l 0,231.405 -149.2,0 c -0.703,-0.023 -1.428,0.037 -2.148,0.176 -4.668,0.898 -8.041,4.984 -8.041,9.737 0,8.371 -6.81,15.18 -15.179,15.18 l -58.361,0 c -8.371,0 -15.179,-6.81 -15.179,-15.18 0,-5.553 -4.601,-10.034 -10.147,-9.915 l -149.245,0 0,-231.403 z m 439.917,260.79 0,0 c 0,16.041 -13.051,29.09 -29.09,29.09 l -414.152,0 c -16.04,0 -29.09,-13.049 -29.09,-29.09 l 0,-9.551 173.403,0 c 4.287,14.491 17.72,25.094 33.582,25.094 l 58.361,0 c 15.862,0 29.295,-10.604 33.583,-25.094 l 173.404,0 0,9.551 z"
       id="path13"
       inkscape:connector-curvature="0" /></g></svg>