<svg xmlns="http://www.w3.org/2000/svg" viewBox="0 0 511.999 350.00001" width="511.999" height="350"><path d="M63.663 281.734c-3.068-240.08 2.302-242.381 2.302-242.381l378.912 2.301 2.301 231.643" fill="none" stroke="#9365ff" stroke-width="40"/><path d="M422.846 54.782H89.154c-6.085 0-11.019 5.937-11.019 13.261v200.291c0 7.325 4.934 13.261 11.019 13.261s11.019-5.936 11.019-13.26V81.302h311.654v187.03c0 7.324 4.934 13.261 11.019 13.261s11.019-5.937 11.019-13.261V68.043c-.001-7.324-4.935-13.261-11.019-13.261z"/><path fill="none" stroke="#9365ff" stroke-width="34.056" d="M32.387 293.163h445.789v21.491H32.387z"/><path fill="#fafafa" d="M91.989 69.081h323.664v210.166H91.989z"/><path fill="#fafafa" d="M208.057 264.668h99.559v37.709h-99.559z"/><path d="M285.935 102.404c-4.802-3.738-11.724-2.876-15.464 1.926L186.11 210.62c-3.739 4.801-2.876 11.725 1.926 15.463a10.983 10.983 0 0 0 8.13 2.24 10.99 10.99 0 0 0 7.332-4.166l84.364-106.288c3.783-4.767 2.875-11.726-1.927-15.465zm43.811 42.576c-4.803-3.737-11.724-2.875-15.464 1.927l-52.17 67.816c-3.71 4.823-2.876 11.725 1.926 15.464a10.983 10.983 0 0 0 8.13 2.24c2.8-.35 5.477-1.754 7.333-4.166l52.17-67.815c3.74-4.802 2.877-11.726-1.925-15.465z"/><path d="M502.083 271.573h-20.295V40.168c0-18.366-14.942-33.308-33.308-33.308H63.52c-18.367 0-33.308 14.942-33.308 33.308v231.405H9.917C4.44 271.573 0 276.012 0 281.49v19.468c0 26.977 21.947 48.924 48.924 48.924h414.151c26.977 0 48.924-21.947 48.924-48.924V281.49c.001-5.478-4.438-9.917-9.916-9.917zM52.249 40.168c0-6.214 5.057-11.271 11.271-11.271h384.958c6.216 0 11.271 5.056 11.271 11.27v231.406h-149.2a9.915 9.915 0 0 0-10.189 9.913c0 8.37-6.81 15.18-15.179 15.18H226.82c-8.371 0-15.179-6.81-15.179-15.18 0-5.553-4.601-10.034-10.147-9.915H52.249zm439.917 260.79c0 16.04-13.051 29.09-29.09 29.09H48.924c-16.04 0-29.09-13.05-29.09-29.09v-9.551h173.403c4.287 14.49 17.72 25.094 33.582 25.094h58.361c15.862 0 29.295-10.604 33.583-25.094h173.404v9.55z"/></svg>