<svg version="1" xmlns="http://www.w3.org/2000/svg" width="3149.333" height="3149.333" viewBox="0 0 2362.000000 2362.000000"><path d="M1162.8 246.5c-.2.1-4.1.5-8.8.8-26.9 1.8-55.2 11.4-77.9 26.4-4.7 3.1-8.8 5.9-9.1 6.2-.3.3-2.7 2.4-5.5 4.6-12.3 9.7-27.3 26.9-36.2 41.5-6.6 10.8-16 32-17.8 40.3-.2 1.2-1.3 6-2.4 10.7-1.1 4.7-2.4 12.3-2.8 17-.4 4.7-.8 116.8-.8 249.2 0 213.4-.2 240.8-1.5 240.9-.8 0-10.5.2-21.5.4s-24.9.7-31 1c-6 .3-15.3.8-20.5 1.1-5.2.2-11.3.6-13.5.8-2.2.3-7.8.7-12.5 1.1-4.7.3-9.6.8-11 1-1.4.2-6.3.7-11 1-4.7.4-9.4.9-10.5 1.1-1.1.2-4.2.6-7 .9-2.7.3-6.7.8-8.7 1-2.1.3-5.7.7-8 1-2.4.3-5.4.8-6.8 1-1.4.2-4.5.7-7 1-5 .7-7.9 1.1-16 2.5-3 .5-7.1 1.1-9 1.4-1.9.3-6 1-9 1.6-3 .7-6.8 1.4-8.5 1.6-7.1 1.2-29.2 5.8-42.5 9-5.8 1.4-11.2 2.7-12 2.9-8.7 1.9-44.2 12.3-62.5 18.3-17.1 5.6-44.9 16.3-59.3 22.8-2.9 1.3-5.4 2.4-5.6 2.4-.2 0-4.8 2.1-10.3 4.6-51.8 24.1-95 51.2-136.8 85.8-14.3 11.8-19.2 16.3-35.5 32.6-16.8 16.9-33.6 35.8-44 49.5-2.5 3.3-4.7 6.2-5 6.5-4.1 3.7-28.4 40.8-39.4 60.3-5.9 10.4-22.6 43.7-22.6 45.1 0 .3-1.1 2.9-2.5 5.8-6.5 14.2-16 40.6-22.9 63.8-3.9 13.4-11 40.9-12.2 47.7-.2 1.3-.6 3.5-.9 5-2.2 11.8-5.6 31.5-6 34.8-.3 2.2-.7 4.9-.9 6-.2 1.1-.7 4.9-1.1 8.5-.3 3.6-.8 7.6-1 9-.2 1.4-.7 5.6-1 9.5-.3 3.8-.7 8.5-1 10.4-2.7 21.1-2.7 109.4 0 127.1.2 1.4.7 5.9 1 10 .3 4.1.8 8.6 1 10 .2 1.4.6 5 1 8 1.1 10.2 5.6 38.4 7.6 48 1.1 5.2 2.3 10.6 2.5 12 .3 1.4 1 4.3 1.6 6.5.5 2.2 1.2 4.8 1.4 5.7.2 1 .6 2.6.8 3.5.3 1 1.1 4.7 2 8.3 2.1 8.8 8.7 30.5 12.6 41.5 1.8 4.9 3.8 10.8 4.5 13 4.5 13.7 23 54.2 34.2 74.5 8.3 15 27.3 44.7 34.7 54.2 1.2 1.5 3.7 4.8 5.6 7.5 1.9 2.6 3.7 5 4 5.3.3.3 2.3 2.7 4.5 5.5 11.4 14.4 21.4 25.4 39.5 43.5 13.5 13.4 17.8 17.4 28 26 3 2.5 7.2 6.1 9.5 8 2.2 1.9 9.4 7.5 16 12.5 6.6 4.9 12.2 9.2 12.5 9.5.3.3 1.3.9 2.2 1.5 1 .5 6.5 4.3 12.3 8.2 5.8 4 10.8 7.3 11.1 7.3.3 0 2.4 1.3 4.7 2.9 7.2 4.9 29.6 17.6 44.7 25.2 22.5 11.5 41.6 20 65.2 29 23.9 9.1 37.1 13.4 75.3 24.4 8.1 2.3 37.8 9.3 43 10.2 1.7.2 4.6.8 6.5 1.3 1.9.5 5.1 1.2 7 1.5 1.9.3 6.7 1.2 10.5 2 6.1 1.2 12.2 2.2 23 4 1.7.3 5 .7 7.5 1.1 2.5.3 5.6.7 7 1 2.6.5 14.2 2 22 3 2.5.3 5.6.7 7 .9 1.4.2 5.7.7 9.5 1 3.9.4 8.1.8 9.5 1 1.4.2 6.3.7 11 1 12.3.9 19.9 1.5 25 2 28.7 2.6 127 2.6 161 0 5.1-.4 20.6-1.5 29.5-2 3.3-.2 7.8-.6 10-.9 2.2-.2 7.6-.8 12-1.1 4.4-.4 8.7-.9 9.5-1 .8-.1 4.9-.6 9-1s8.4-.9 9.4-1.1c1.1-.2 4.4-.6 7.5-.9 3.1-.3 6.5-.7 7.6-.9 1.1-.2 4.3-.7 7-1 2.8-.4 7.7-1.1 11-1.6s7.8-1.2 10-1.5c2.2-.3 4.9-.8 6.1-1 1.2-.3 3.9-.7 6-1.1 39.4-6 77-27 101.8-56.9 8.4-10.1 8.3-10 13.3-17.7 12.6-19.7 22.1-46 25-69.3.9-7.2 1-33.2.1-39.5-.3-2.5-.2-5.2.2-6 .4-.8 1-3.4 1.4-5.8.3-2.4.7-4.6 1-5 .2-.4.7-3.4 1-6.6.4-3.2 1-6.4 1.4-7 .3-.6.7-142 .7-314.3 0-172.2.3-313.4.7-313.8.7-.8 20.9 5.4 40.8 12.5 130 46.2 227.8 125.4 294 238 7.7 13 24.2 45.1 29.9 58 1.8 4.1 4.2 9.4 5.2 11.7 1.1 2.4 1.9 4.6 1.9 4.9 0 .5 1.1 3.1 4.1 9.9 10.2 22.9 30.3 90.1 36.3 121.5.2 1.4 1.2 5.9 2.1 10 .9 4.1 1.8 9 2.1 10.9.3 1.8.8 4.3 1 5.5 1.4 6.6 6.1 36.4 7.9 50.6.4 2.5.8 5.6 1 7 .2 1.4.7 5.4 1 9 .3 3.5.8 7.8 1 9.5.2 1.6.6 5.6.9 8.7.4 3.2.8 8.2 1.1 11 .3 2.9.7 8.4 1 12.3.3 3.8.7 10.6 1 15 1.4 20.3 2.2 42.3 3 82 .2 11.5.9 23.9 1.5 27.5 4.4 25.6 12.5 46.7 25.5 66.6 5.3 8.1 6.1 9.2 14.4 18.8 26.3 30.6 67.2 51.6 107.5 55.3 13 1.1 37.9.5 42.8-1.2.7-.2 2.7-.6 4.3-.8 6.2-1 16.3-3.7 25-6.7 19.6-7 35.3-16 51.6-29.7 19.5-16.3 37-40.1 45.9-62.3 1.2-3 2.6-6.4 3.1-7.5 1-2.4 4.7-14.8 5.3-17.9 1.1-5.4 2.5-12.5 3.3-16.6 1.5-8.4.7-86.2-1.2-114-.3-3.6-.7-10.8-1-16-.6-10.8-1.3-20.4-2-27-.2-2.5-.7-7.7-1-11.5-.3-3.9-.7-8.8-1-11-.2-2.2-.7-6.7-1-10-.4-3.3-.8-7.4-1-9-.2-1.7-.7-5.1-1-7.8-.9-8.1-1.6-14.1-2-16.7-.2-1.4-.9-6.3-1.5-11s-1.3-9.6-1.5-11c-.2-1.4-1.1-7-2-12.5-.9-5.5-1.8-11.6-2.1-13.5-.3-1.9-.7-4.6-1-6-.2-1.4-.7-3.9-1-5.5-.7-4-3.2-17.4-3.9-20.5-.3-1.4-.7-3.9-.9-5.5-.5-3.5-5.2-25.3-6.6-30.5-1.1-4.2-3-13.1-3.2-14.5 0-.6-.4-2-.9-3.3-.5-1.3-1.1-3.7-1.4-5.3-.9-4.7-6.2-24.6-12-44.9-17.5-60.7-40.4-119.1-68-173.5-12.6-24.8-13.2-26-24.7-46-16-27.8-40.7-65.2-59.2-89.6-8-10.4-27.5-35-28.6-35.9-.3-.3-3.6-4.1-7.4-8.5-20.8-24.3-51.1-54.9-78.6-79.5-5.8-5.2-11.1-10-11.8-10.7-.7-.7-1.6-1.3-2-1.3-.4 0-2.8-2-5.3-4.3-2.6-2.3-5.6-5-6.8-5.9-6.1-5.1-21.9-17.2-31.1-24-5.8-4.3-10.9-8.1-11.5-8.6-6.5-5.3-66.2-44.2-67.9-44.2-.2 0-4.2-2.2-8.8-4.9-29.9-17.5-75.1-39.4-112.8-54.6-49.3-19.9-113.9-40.1-156.9-49-.9-.2-5.2-1.1-9.6-2-9.4-2-9.2-2-17.5-3.5-3.6-.7-6.9-1.7-7.5-2.2-.6-.6-1-88.6-1.1-257.1 0-140.9-.4-259.1-.8-262.7-.5-3.6-1-7.4-1.2-8.5-.2-1.1-.9-4.7-1.5-8-1.7-9.5-8.2-28.2-13.3-38.4-10.8-21.4-24.4-38.7-42.3-53.7-3.2-2.7-5.9-5.2-6.1-5.7-.2-.4-.8-.7-1.3-.7-.6 0-3.4-1.8-6.3-3.9-18.6-13.8-51.2-25.6-76.1-27.6-10.6-.8-21.3-1.3-21.7-1zM1001.4 1499c-.1 155.7-.4 283.4-.7 283.7-.7.6-53.3.5-66.2-.2-8.7-.4-23.9-1.3-33.9-2-7.8-.6-18.4-1.7-28.3-3-2.1-.3-5.6-.7-7.8-1-2.1-.2-7.5-1-12-1.6-4.4-.6-8.9-1.3-10-1.4-8.9-1.3-30.5-5.9-47-10.1-73.6-18.5-127.5-49.9-158.7-92.5-15.6-21.3-26.8-45.6-33.8-73.9-2.9-11.7-5.4-24.5-6.6-33.5-.3-2.8-.7-5.7-.9-6.5-.2-.8-.6-5.6-1-10.5-.3-5-.8-10.8-1.1-13-.5-4.6-.5-47.2 0-52.6.2-2 .7-8.1 1.1-13.5.4-5.5.8-10.1 1-10.4.1-.3.6-3 .9-6.1.4-3.1.9-6.7 1.1-8 .3-1.3.8-4 1.1-5.9.3-1.9 1.5-7.3 2.6-12s2.1-9.2 2.3-10c3.4-17 16.9-48.2 28.8-66.3 24.6-37.6 65.2-68.8 117.2-90 21.6-8.9 61.5-21.3 80.6-25.1 2.7-.5 11.1-2.3 14.9-3.1 2.8-.6 11.7-2.2 17-3 1.9-.3 4.2-.8 5-1 .8-.2 4-.7 7-1 3-.3 6.2-.8 7-1 .8-.2 3.8-.7 6.6-1 2.8-.3 6.1-.7 7.3-1 1.2-.2 5.7-.7 9.9-1 4.2-.4 8.4-.8 9.2-1 1.4-.4 5.6-.8 22-2.1 3-.2 11.4-.7 18.5-1 7.2-.3 13.1-.7 13.2-.7.1-.1 7.7-.3 17-.5l16.8-.3-.1 283.1z"/></svg>